<svg xmlns="http://www.w3.org/2000/svg" viewBox="0 0 159.8 38.95"><defs><style>.cls-1{fill:#e2b769;}</style></defs><title>header__logo</title><g id="Слой_2" data-name="Слой 2"><g id="wrapper"><path id="logo" class="cls-1" d="M19.48,39h0l-1.24-1.24L10.42,29.9,6.69,26.17,3.22,22.7,0,19.48,19.48,0,39,19.48l-.56.56L35.73,22.7l-7.2,7.2L24,34.41,19.48,39Zm0-18.1h0l7.93,7.93L30,26.17,19.48,15.62,8.93,26.17l2.61,2.61,7.94-7.93Zm0-7.47h0L31.14,25.05l2.35-2.35-14-14-14,14,2.35,2.35Zm0-6.94h0L34.61,21.58l2.1-2.1L19.48,2.24,2.24,19.48l2.1,2.1Z"/><path id="t" class="cls-1" d="M152,10.72h7.79v2.6h-2.47V28.9h-2.85V13.32H152Z"/><path id="f" class="cls-1" d="M146.11,28.9h-2.8v-2h-1.07a4.16,4.16,0,0,1-3.2-1.14A4.82,4.82,0,0,1,138,22.35v-5A4.8,4.8,0,0,1,139,14a4.16,4.16,0,0,1,3.2-1.14h1.07V10.72h2.8V12.9h1.07a4.16,4.16,0,0,1,3.2,1.14,4.86,4.86,0,0,1,1.06,3.35v5a4.85,4.85,0,0,1-1.06,3.35,4.16,4.16,0,0,1-3.2,1.14h-1.07Zm0-13.48v8.93h1.07a1.34,1.34,0,0,0,1-.41,2.11,2.11,0,0,0,.38-1.4V17.21a2.09,2.09,0,0,0-.38-1.39,1.41,1.41,0,0,0-1-.4Zm-3.87,0a1.38,1.38,0,0,0-1.05.4,2,2,0,0,0-.37,1.39v5.32a2,2,0,0,0,.37,1.4,1.34,1.34,0,0,0,1.05.42h1.07V15.42Z"/><path id="i" class="cls-1" d="M130.06,28.9h-2.93V10.72h2.54V22.23l1-4,2.34-7.51h3.14V28.9h-2.57V16.1l-1.17,4.46Z"/><path id="l" class="cls-1" d="M114.63,26.33a5.56,5.56,0,0,0,.82,0A1,1,0,0,0,116,26a1.09,1.09,0,0,0,.3-.57,5.58,5.58,0,0,0,.12-1l.47-13.74H125V28.9H122V13.32h-2.49l-.31,11a5.46,5.46,0,0,1-1,3.56,4,4,0,0,1-3.1,1.07h-.45Z"/><path id="_-" data-name="-" class="cls-1" d="M108.3,22.67h5.19v-2.6H108.3Z"/><path id="a" class="cls-1" d="M107.1,28.9h-2.88l-.5-3.3h-3.5l-.5,3.3H97.1L100,10.72h4.18Zm-5.14-15h0l-1.38,9.2h2.75Z"/><path id="p" class="cls-1" d="M89.62,28.9H86.76V10.72h9V28.9H92.86V13.32H89.62Z"/><path id="o" class="cls-1" d="M80.58,29.11a4.23,4.23,0,0,1-3.22-1.18,4.76,4.76,0,0,1-1.12-3.39V15.08a4.77,4.77,0,0,1,1.12-3.39,5,5,0,0,1,6.44,0,4.77,4.77,0,0,1,1.12,3.39v9.46a4.76,4.76,0,0,1-1.12,3.39A4.23,4.23,0,0,1,80.58,29.11Zm0-16a1.48,1.48,0,0,0-1.08.4,2,2,0,0,0-.4,1.39v9.82a2,2,0,0,0,.4,1.39,1.66,1.66,0,0,0,2.16,0,1.92,1.92,0,0,0,.4-1.39V14.9a1.94,1.94,0,0,0-.4-1.39A1.48,1.48,0,0,0,80.58,13.11Z"/><path id="r" class="cls-1" d="M69,28.9H66.17V10.72h4.2a4.18,4.18,0,0,1,3.21,1.14,4.79,4.79,0,0,1,1,3.35v2.37a4.79,4.79,0,0,1-1,3.35,4.18,4.18,0,0,1-3.21,1.14H69Zm0-15.58v6.15h1.35a1.37,1.37,0,0,0,1-.36,1.92,1.92,0,0,0,.37-1.35V15a1.92,1.92,0,0,0-.37-1.35,1.41,1.41,0,0,0-1-.36Z"/><path id="v" class="cls-1" d="M60.11,28.9H55.62V10.72h4.31a4.35,4.35,0,0,1,3.24,1,4.41,4.41,0,0,1,1,3.14v.65a5.35,5.35,0,0,1-.45,2.31,2.79,2.79,0,0,1-1.4,1.35A2.91,2.91,0,0,1,64,20.66a5.59,5.59,0,0,1,.48,2.45v1.48a4.39,4.39,0,0,1-1.09,3.21A4.4,4.4,0,0,1,60.11,28.9Zm-1.63-8.18V26.3h1.63a1.43,1.43,0,0,0,1.1-.39,2,2,0,0,0,.38-1.4V22.93a2.62,2.62,0,0,0-.43-1.74,1.82,1.82,0,0,0-1.41-.47Zm0-7.4v4.8h1.11a1.79,1.79,0,0,0,1.26-.41,2,2,0,0,0,.46-1.51v-1A2.32,2.32,0,0,0,61,13.76a1.32,1.32,0,0,0-1.1-.44Z"/><path id="e" class="cls-1" d="M48.92,18.38H51.8V21H48.92v5.33h4.93v2.6H46.06V10.72h7.79v2.6H48.92Z"/></g></g></svg>