<svg id="like" xmlns="http://www.w3.org/2000/svg" width="150" height="150" viewBox="0 0 150 150" class="send-form__tnx__img">
  <g id="top" >
    <path  d="M15.643,41.23l2.036,3.733a7.684,7.684,0,0,0,13.5,0,2.2,2.2,0,0,0-3.858-2.1,3.289,3.289,0,0,1-5.78,0L19.5,39.126a24.3,24.3,0,0,0-9.668-9.694L6.11,27.39a3.317,3.317,0,0,1,0-5.809L9.833,19.54A24.3,24.3,0,0,0,19.5,9.845l2.036-3.732a3.289,3.289,0,0,1,5.78,0l2.036,3.733a24.306,24.306,0,0,0,9.668,9.693l3.722,2.042a3.316,3.316,0,0,1,0,5.81l-3.722,2.04a24.258,24.258,0,0,0-6.705,5.42,2.2,2.2,0,1,0,3.323,2.874,19.919,19.919,0,0,1,5.494-4.44l3.723-2.04a7.712,7.712,0,0,0,0-13.517l-3.723-2.042a19.919,19.919,0,0,1-7.923-7.944L31.175,4.01a7.683,7.683,0,0,0-13.5,0L15.643,7.742A19.919,19.919,0,0,1,7.72,15.686L4,17.728A7.712,7.712,0,0,0,4,31.245l3.723,2.04A19.927,19.927,0,0,1,15.643,41.23Z" fill="#977841"/>
  </g>
  <g id="bot" >
    <path d="M18.4,36.885a6.193,6.193,0,0,1-5.441-3.234l-1.484-2.72a13.929,13.929,0,0,0-5.538-5.553L3.223,23.891a6.217,6.217,0,0,1,0-10.9l2.714-1.486a13.937,13.937,0,0,0,5.538-5.554l1.484-2.721a6.195,6.195,0,0,1,10.882,0l1.483,2.72a13.94,13.94,0,0,0,5.538,5.554l2.714,1.486a6.217,6.217,0,0,1,0,10.9l-2.714,1.488a13.936,13.936,0,0,0-5.538,5.553l-1.483,2.72A6.2,6.2,0,0,1,18.4,36.885Zm0-32.49a1.769,1.769,0,0,0-1.583.943l-1.483,2.72a18.309,18.309,0,0,1-7.284,7.3L5.336,16.848a1.822,1.822,0,0,0,0,3.19l2.713,1.488a18.3,18.3,0,0,1,7.283,7.3l1.484,2.721a1.8,1.8,0,0,0,3.166,0l1.484-2.721a18.317,18.317,0,0,1,7.283-7.3l2.713-1.488a1.821,1.821,0,0,0,0-3.19L28.749,15.36a18.319,18.319,0,0,1-7.283-7.3l-1.483-2.72A1.774,1.774,0,0,0,18.4,4.395Z" transform="translate(113.203 113.116)" fill="#977841"/>
  </g>
  <g id="hand">
    <path  d="M30.1,135.675h0a11.523,11.523,0,0,1-8.674-3.648A15.619,15.619,0,0,1,18.03,126.2L.626,71.006A13.481,13.481,0,0,1,9.379,54.118l24.146-7.654c4.7-2.577,15.695-9.721,16.287-20.369A63.166,63.166,0,0,0,48.053,9.7,7.91,7.91,0,0,1,58.763.593c5.573,2.281,12.5,7.255,13.848,18,.307,2.431.691,4.736,1.144,6.854.273,1.274,1.1,5.149,5.422,5.149a9.909,9.909,0,0,0,2.695-.42l21.554-6.834a11.9,11.9,0,0,1,9.1.82,11.348,11.348,0,0,1,5.625,6.826,11.579,11.579,0,0,1-1.215,9.343,11.548,11.548,0,0,1,5.244,16.633,11.573,11.573,0,0,1,2.668,19.584,11.852,11.852,0,0,1,4.124,5.707,11.574,11.574,0,0,1-7.517,14.5L64.726,114.734a2.84,2.84,0,0,1-.656.08,2.162,2.162,0,0,1-2.1-1.51,2.2,2.2,0,0,1,1.431-2.759l56.726-17.983a7.173,7.173,0,0,0,4.653-8.988,7.539,7.539,0,0,0-2.885-3.754,4.006,4.006,0,0,1-1.648-3.232,4.13,4.13,0,0,1,1.637-3.3,7.171,7.171,0,0,0-1.755-12.416,3.981,3.981,0,0,1-1.872-5.928,7.165,7.165,0,0,0-3.372-10.7,3.909,3.909,0,0,1-2.337-2.474,4.054,4.054,0,0,1,.491-3.494,6.827,6.827,0,0,0,.9-6.025,7.006,7.006,0,0,0-6.9-5.037,7.9,7.9,0,0,0-2.286.325L83.2,34.363a14.888,14.888,0,0,1-4.347.69c-3.523,0-8.012-1.507-9.395-8.69-.435-2.258-.886-4.677-1.206-7.223C67.381,12.2,63.629,7.333,57.1,4.66a3.541,3.541,0,0,0-1.346-.269,3.443,3.443,0,0,0-2.249.84,3.5,3.5,0,0,0-1.165,3.5C53.024,11.746,54.581,19.5,54.2,26.34c-.311,5.611-2.84,10.905-7.514,15.736a45.4,45.4,0,0,1-9.662,7.454l19.544,61.976a15.849,15.849,0,0,1-10.292,19.856l-11.391,3.611A18.047,18.047,0,0,1,30.1,135.675ZM32.96,51.252,10.708,58.306A9.081,9.081,0,0,0,4.817,69.684l17.4,55.191a9,9,0,0,0,11.336,5.909l11.391-3.612a11.449,11.449,0,0,0,7.429-14.344Z" transform="translate(8.684 10.303)" fill="#977841"/>
    <path d="M9.419,18.84a9.42,9.42,0,1,1,9.421-9.42A9.431,9.431,0,0,1,9.419,18.84Zm0-14.423a5,5,0,1,0,5,5A5.008,5.008,0,0,0,9.419,4.417Z" transform="translate(35.044 114.918)" fill="#977841"/>
  </g>
</svg>
