<svg xmlns="http://www.w3.org/2000/svg" xmlns:xlink="http://www.w3.org/1999/xlink" width="163.222" height="163.224" viewBox="0 0 163.222 163.224">
  <defs>
    <filter id="Fill_1" x="0" y="0" width="163.222" height="163.224" filterUnits="userSpaceOnUse">
      <feOffset input="SourceAlpha"/>
      <feGaussianBlur stdDeviation="5" result="blur"/>
      <feFlood flood-color="#e4b769"/>
      <feComposite operator="in" in2="blur"/>
      <feComposite in="SourceGraphic"/>
    </filter>
  </defs>
  <g transform="matrix(1, 0, 0, 1, 0, 0)" filter="url(#Fill_1)">
    <path id="Fill_1-2" data-name="Fill 1" d="M66.61,133.224h0l-.911-.912-.867-.864L37.583,104.2l-.867-.865-.891-.891L24.758,91.373l-.865-.868L12.84,79.456l-.866-.868-10.2-10.2-.867-.866L0,66.611.913,65.7l.865-.866L64.832,1.78,65.7.913,66.611,0l.913.913.866.868,63.056,63.054.865.866.912.911-.911.914-.866.867L96.5,103.333l-.691.691-.092.092L68.389,131.448l-.174.173-.692.693-.913.91Zm0-61.613h0l.913.912.865.866L93.86,98.861l9.267-9.266L66.611,53.078,30.1,89.593l9.266,9.267L64.831,73.39l.866-.866.912-.912Zm0-25.645h0l.912.909.866.867,38.3,38.294,8.36-8.359L66.611,29.243,18.177,77.677l8.361,8.359,38.3-38.294.864-.867.912-.909Zm0-23.839h0l.912.913.866.867L118.6,74.119l7.507-7.506-59.5-59.5-59.5,59.5,7.508,7.506L64.832,23.907l.866-.867.912-.913Z" transform="translate(15 15)" fill="#e4b769"/>
  </g>
</svg>
